{
	"asset":{
		"generator":"Khronos glTF Blender I/O v3.5.30",
		"version":"2.0"
	},
	"extensionsUsed":[
		"KHR_materials_specular",
		"KHR_materials_ior"
	],
	"scene":0,
	"scenes":[
		{
			"name":"Scene",
			"nodes":[
				14
			]
		}
	],
	"nodes":[
		{
			"mesh":0,
			"name":"Bry__a1",
			"scale":[
				10,
				10,
				10
			]
		},
		{
			"children":[
				0
			],
			"name":"MeshInstance",
			"rotation":[
				0,
				-0.7071067094802856,
				0,
				0.7071068286895752
			],
			"translation":[
				-69.99999237060547,
				11.999999046325684,
				23.5
			]
		},
		{
			"mesh":1,
			"name":"Bry__a1.001",
			"scale":[
				10,
				10,
				10
			],
			"translation":[
				2.2668004930892494e-06,
				0,
				0
			]
		},
		{
			"children":[
				2
			],
			"name":"MeshInstance_1",
			"rotation":[
				0,
				0.7071067094802856,
				0,
				0.7071068286895752
			],
			"translation":[
				30.024681091308594,
				12.011643409729004,
				-23.5
			]
		},
		{
			"mesh":2,
			"name":"Bry__a1.002",
			"scale":[
				10,
				10,
				10
			],
			"translation":[
				2.2668004930892494e-06,
				0,
				0
			]
		},
		{
			"children":[
				4
			],
			"name":"MeshInstance_2",
			"rotation":[
				0,
				-0.7071067094802856,
				0,
				0.7071068286895752
			],
			"translation":[
				30.024681091308594,
				12.011643409729004,
				23.5
			]
		},
		{
			"mesh":3,
			"name":"Bry__a1.003",
			"scale":[
				10,
				10,
				10
			]
		},
		{
			"children":[
				6
			],
			"name":"MeshInstance_3",
			"rotation":[
				0,
				0.7071067094802856,
				0,
				0.7071068286895752
			],
			"translation":[
				-69.99999237060547,
				11.999999046325684,
				-23.5
			]
		},
		{
			"mesh":4,
			"name":"Bry__a4",
			"scale":[
				10,
				10,
				10
			]
		},
		{
			"children":[
				8
			],
			"name":"MeshInstance_4"
		},
		{
			"mesh":5,
			"name":"Bry__a1.004",
			"scale":[
				10,
				10,
				10
			],
			"translation":[
				3.814697265625e-06,
				0,
				0
			]
		},
		{
			"children":[
				10
			],
			"name":"MeshInstance_5",
			"translation":[
				56,
				-49,
				32.999996185302734
			]
		},
		{
			"mesh":6,
			"name":"Bry__a1.005",
			"scale":[
				10,
				10,
				10
			]
		},
		{
			"children":[
				12
			],
			"name":"MeshInstance_6",
			"translation":[
				156.02468872070312,
				-48.98835754394531,
				32.999996185302734
			]
		},
		{
			"children":[
				1,
				3,
				5,
				7,
				9,
				11,
				13
			],
			"name":"bolidzik_2_v19_file",
			"scale":[
				0.0020000000949949026,
				0.0020000000949949026,
				0.0020000000949949026
			]
		}
	],
	"materials":[
		{
			"doubleSided":true,
			"extensions":{
				"KHR_materials_specular":{
					"specularColorFactor":[
						0.0866638745491031,
						0.0866638745491031,
						0.0866638745491031
					]
				},
				"KHR_materials_ior":{
					"ior":50
				}
			},
			"name":"F_b1b65f45ebd043429d520e27a1ffdd23",
			"pbrMetallicRoughness":{
				"baseColorFactor":[
					0.3500002920627594,
					0.3500002920627594,
					0.3500002920627594,
					1
				],
				"roughnessFactor":0.2645750045776367
			}
		},
		{
			"doubleSided":true,
			"name":"F_9dc923cbe2f749f08eab4a498b8af37d_baked",
			"pbrMetallicRoughness":{
				"baseColorFactor":[
					0.9607840180397034,
					0.9607840180397034,
					0.9529410004615784,
					1
				],
				"metallicFactor":0,
				"roughnessFactor":0.4000000059604645
			}
		},
		{
			"doubleSided":true,
			"name":"F_cf26eea0f24e44cc9c2731f1e745c083_baked",
			"pbrMetallicRoughness":{
				"baseColorFactor":[
					0.7529410123825073,
					0.046949997544288635,
					0.009938816539943218,
					1
				],
				"metallicFactor":0,
				"roughnessFactor":0.4000000059604645
			}
		},
		{
			"doubleSided":true,
			"extensions":{
				"KHR_materials_specular":{
					"specularColorFactor":[
						0.0866638745491031,
						0.0866638745491031,
						0.0866638745491031
					]
				},
				"KHR_materials_ior":{
					"ior":50
				}
			},
			"name":"F_467ee467fe334240b2579abbaabe6b3a",
			"pbrMetallicRoughness":{
				"baseColorFactor":[
					0.3500002920627594,
					0.3500002920627594,
					0.3500002920627594,
					1
				],
				"roughnessFactor":0.2645750045776367
			}
		}
	],
	"meshes":[
		{
			"name":"Bry__a1",
			"primitives":[
				{
					"attributes":{
						"POSITION":0,
						"TEXCOORD_0":1,
						"NORMAL":2
					},
					"indices":3,
					"material":0
				}
			]
		},
		{
			"name":"Bry__a1.001",
			"primitives":[
				{
					"attributes":{
						"POSITION":4,
						"TEXCOORD_0":5,
						"NORMAL":6
					},
					"indices":3,
					"material":0
				}
			]
		},
		{
			"name":"Bry__a1.002",
			"primitives":[
				{
					"attributes":{
						"POSITION":7,
						"TEXCOORD_0":8,
						"NORMAL":9
					},
					"indices":3,
					"material":0
				}
			]
		},
		{
			"name":"Bry__a1.003",
			"primitives":[
				{
					"attributes":{
						"POSITION":10,
						"TEXCOORD_0":11,
						"NORMAL":12
					},
					"indices":3,
					"material":0
				}
			]
		},
		{
			"name":"Bry__a4",
			"primitives":[
				{
					"attributes":{
						"POSITION":13,
						"TEXCOORD_0":14,
						"NORMAL":15
					},
					"indices":16,
					"material":1
				},
				{
					"attributes":{
						"POSITION":17,
						"TEXCOORD_0":18,
						"NORMAL":19
					},
					"indices":20,
					"material":2
				}
			]
		},
		{
			"name":"Bry__a1.004",
			"primitives":[
				{
					"attributes":{
						"POSITION":21,
						"TEXCOORD_0":22,
						"NORMAL":23
					},
					"indices":24,
					"material":3
				}
			]
		},
		{
			"name":"Bry__a1.005",
			"primitives":[
				{
					"attributes":{
						"POSITION":25,
						"TEXCOORD_0":26,
						"NORMAL":27
					},
					"indices":24,
					"material":3
				}
			]
		}
	],
	"accessors":[
		{
			"bufferView":0,
			"componentType":5126,
			"count":1965,
			"max":[
				1.75,
				1.5,
				1.4994304180145264
			],
			"min":[
				-0.25,
				-1.4977222681045532,
				-1.4994304180145264
			],
			"type":"VEC3"
		},
		{
			"bufferView":1,
			"componentType":5126,
			"count":1965,
			"type":"VEC2"
		},
		{
			"bufferView":2,
			"componentType":5126,
			"count":1965,
			"type":"VEC3"
		},
		{
			"bufferView":3,
			"componentType":5123,
			"count":8010,
			"type":"SCALAR"
		},
		{
			"bufferView":4,
			"componentType":5126,
			"count":1965,
			"max":[
				1.75,
				1.5,
				1.4994304180145264
			],
			"min":[
				-0.25,
				-1.4977222681045532,
				-1.4994304180145264
			],
			"type":"VEC3"
		},
		{
			"bufferView":5,
			"componentType":5126,
			"count":1965,
			"type":"VEC2"
		},
		{
			"bufferView":6,
			"componentType":5126,
			"count":1965,
			"type":"VEC3"
		},
		{
			"bufferView":7,
			"componentType":5126,
			"count":1965,
			"max":[
				1.75,
				1.5,
				1.4994304180145264
			],
			"min":[
				-0.25,
				-1.4977222681045532,
				-1.4994304180145264
			],
			"type":"VEC3"
		},
		{
			"bufferView":8,
			"componentType":5126,
			"count":1965,
			"type":"VEC2"
		},
		{
			"bufferView":9,
			"componentType":5126,
			"count":1965,
			"type":"VEC3"
		},
		{
			"bufferView":10,
			"componentType":5126,
			"count":1965,
			"max":[
				1.75,
				1.5,
				1.4994304180145264
			],
			"min":[
				-0.25,
				-1.4977222681045532,
				-1.4994304180145264
			],
			"type":"VEC3"
		},
		{
			"bufferView":11,
			"componentType":5126,
			"count":1965,
			"type":"VEC2"
		},
		{
			"bufferView":12,
			"componentType":5126,
			"count":1965,
			"type":"VEC3"
		},
		{
			"bufferView":13,
			"componentType":5126,
			"count":4561,
			"max":[
				7.916202068328857,
				4.834920883178711,
				3.5499930381774902
			],
			"min":[
				-13,
				0.20000000298023224,
				-3.5499930381774902
			],
			"type":"VEC3"
		},
		{
			"bufferView":14,
			"componentType":5126,
			"count":4561,
			"type":"VEC2"
		},
		{
			"bufferView":15,
			"componentType":5126,
			"count":4561,
			"type":"VEC3"
		},
		{
			"bufferView":16,
			"componentType":5123,
			"count":19038,
			"type":"SCALAR"
		},
		{
			"bufferView":17,
			"componentType":5126,
			"count":3778,
			"max":[
				7.916202068328857,
				2.5999999046325684,
				3.7780821323394775
			],
			"min":[
				-11.600000381469727,
				0.20000000298023224,
				-3.7780821323394775
			],
			"type":"VEC3"
		},
		{
			"bufferView":18,
			"componentType":5126,
			"count":3778,
			"type":"VEC2"
		},
		{
			"bufferView":19,
			"componentType":5126,
			"count":3778,
			"type":"VEC3"
		},
		{
			"bufferView":20,
			"componentType":5123,
			"count":15846,
			"type":"SCALAR"
		},
		{
			"bufferView":21,
			"componentType":5126,
			"count":74,
			"max":[
				-12.449999809265137,
				6.247721195220947,
				0
			],
			"min":[
				-12.75,
				5.952279090881348,
				-6.599999904632568
			],
			"type":"VEC3"
		},
		{
			"bufferView":22,
			"componentType":5126,
			"count":74,
			"type":"VEC2"
		},
		{
			"bufferView":23,
			"componentType":5126,
			"count":74,
			"type":"VEC3"
		},
		{
			"bufferView":24,
			"componentType":5123,
			"count":204,
			"type":"SCALAR"
		},
		{
			"bufferView":25,
			"componentType":5126,
			"count":74,
			"max":[
				-12.449999809265137,
				6.247721195220947,
				0
			],
			"min":[
				-12.75,
				5.952279090881348,
				-6.599999904632568
			],
			"type":"VEC3"
		},
		{
			"bufferView":26,
			"componentType":5126,
			"count":74,
			"type":"VEC2"
		},
		{
			"bufferView":27,
			"componentType":5126,
			"count":74,
			"type":"VEC3"
		}
	],
	"bufferViews":[
		{
			"buffer":0,
			"byteLength":23580,
			"byteOffset":0,
			"target":34962
		},
		{
			"buffer":0,
			"byteLength":15720,
			"byteOffset":23580,
			"target":34962
		},
		{
			"buffer":0,
			"byteLength":23580,
			"byteOffset":39300,
			"target":34962
		},
		{
			"buffer":0,
			"byteLength":16020,
			"byteOffset":62880,
			"target":34963
		},
		{
			"buffer":0,
			"byteLength":23580,
			"byteOffset":78900,
			"target":34962
		},
		{
			"buffer":0,
			"byteLength":15720,
			"byteOffset":102480,
			"target":34962
		},
		{
			"buffer":0,
			"byteLength":23580,
			"byteOffset":118200,
			"target":34962
		},
		{
			"buffer":0,
			"byteLength":23580,
			"byteOffset":141780,
			"target":34962
		},
		{
			"buffer":0,
			"byteLength":15720,
			"byteOffset":165360,
			"target":34962
		},
		{
			"buffer":0,
			"byteLength":23580,
			"byteOffset":181080,
			"target":34962
		},
		{
			"buffer":0,
			"byteLength":23580,
			"byteOffset":204660,
			"target":34962
		},
		{
			"buffer":0,
			"byteLength":15720,
			"byteOffset":228240,
			"target":34962
		},
		{
			"buffer":0,
			"byteLength":23580,
			"byteOffset":243960,
			"target":34962
		},
		{
			"buffer":0,
			"byteLength":54732,
			"byteOffset":267540,
			"target":34962
		},
		{
			"buffer":0,
			"byteLength":36488,
			"byteOffset":322272,
			"target":34962
		},
		{
			"buffer":0,
			"byteLength":54732,
			"byteOffset":358760,
			"target":34962
		},
		{
			"buffer":0,
			"byteLength":38076,
			"byteOffset":413492,
			"target":34963
		},
		{
			"buffer":0,
			"byteLength":45336,
			"byteOffset":451568,
			"target":34962
		},
		{
			"buffer":0,
			"byteLength":30224,
			"byteOffset":496904,
			"target":34962
		},
		{
			"buffer":0,
			"byteLength":45336,
			"byteOffset":527128,
			"target":34962
		},
		{
			"buffer":0,
			"byteLength":31692,
			"byteOffset":572464,
			"target":34963
		},
		{
			"buffer":0,
			"byteLength":888,
			"byteOffset":604156,
			"target":34962
		},
		{
			"buffer":0,
			"byteLength":592,
			"byteOffset":605044,
			"target":34962
		},
		{
			"buffer":0,
			"byteLength":888,
			"byteOffset":605636,
			"target":34962
		},
		{
			"buffer":0,
			"byteLength":408,
			"byteOffset":606524,
			"target":34963
		},
		{
			"buffer":0,
			"byteLength":888,
			"byteOffset":606932,
			"target":34962
		},
		{
			"buffer":0,
			"byteLength":592,
			"byteOffset":607820,
			"target":34962
		},
		{
			"buffer":0,
			"byteLength":888,
			"byteOffset":608412,
			"target":34962
		}
	],
	"buffers":[
		{
			"byteLength":609300,
			"uri":"data:application/octet-stream;base64,"
		}
	]
}
